<?xml version="1.0" encoding="UTF-8"?>
<svg id="Layer_2" data-name="Layer 2" xmlns="http://www.w3.org/2000/svg" viewBox="0 0 1064.53 1064.53">
  <defs>
    <style>
      .cls-1 {
        fill: #fed092;
      }

      .cls-2 {
        fill: #231f20;
      }
    </style>
  </defs>
  <g id="BLACK">
    <rect class="cls-1" width="1064.53" height="1064.53"/>
    <g>
      <path class="cls-2" d="m860.29,313.83c16.71-25.62,7.72-58.54-13.94-70.7-18.05-10.13-43.65-5.15-59.26,12.41l73.2,58.29Z"/>
      <path class="cls-2" d="m765.88,636.52c-1-1.85-1.91-3.7-2.81-5.56l-12.55,6.76c2.7,3.42,5.55,6.77,8.65,9.98,12.78,13.24,26.04,21.63,35.76,26.82-8.47-8.15-19.69-20.65-29.06-38Z"/>
      <path class="cls-2" d="m754.7,610.08c-22.55-70.57,7.96-145.21,20.12-174.72,10.26-24.9,30.38-64.95,69.55-105.63l-68.75-54.74c-31.11,59.85-44.06,112.92-49.98,149.19-8.14,49.88-21.77,132.97,12.46,194.83l16.59-8.94Z"/>
    </g>
    <g>
      <path class="cls-2" d="m771.05,875.14c57-20.01,115.61-47.24,174.58-82.71-61.76,23.28-121.72,39.44-178.64,49.31,2.72,10.04,4.43,21.31,4.07,33.4Z"/>
      <path class="cls-2" d="m283.06,597.31c2.56,5.21,5.43,10.3,8.59,15.27,1.44-26.3,7.03-57.65,19.62-94.24-7.34-18.65-17.31-46.6-30.98-86.21-25.29,85.57-9.92,139.31,2.78,165.18Z"/>
      <path class="cls-2" d="m434,824.83c-.32-.79-.63-1.58-.95-2.37-2.38-.21-4.75-.44-7.1-.68,0,0-.02,0-.02,0-60.91-6.26-117.1-22.4-162.5-46.68-28.65-15.32-53.14-33.93-72.52-54.96,3.52,21.61,10.22,42.51,21.02,62.02,40.24,72.72,135.96,124.01,261.49,135.06-12.66-25.62-24.83-55.99-39.16-91.75l-.26-.65Z"/>
    </g>
    <g>
      <path class="cls-2" d="m743.92,761.52c53.03-19.53,107.36-45.33,162-78.2-58.55,22.07-115.46,37.72-169.72,47.7,2.17,8.93,4.35,17.85,6.54,26.74.39,1.17.79,2.43,1.18,3.77Z"/>
      <path class="cls-2" d="m389.05,706.83c-56.56-24.81-98.11-60.75-119.66-104.67-10.65-21.71-35.7-84.79,2.93-195.18-9.78-28.55-21.21-62.19-34.57-101.56-34.94,57.38-135.32,241.55-65.53,367.64,39.63,71.6,133.03,122.43,255.72,134.53-11.15-28.21-22.06-56.72-32.65-84.45-2.07-5.42-4.15-10.87-6.24-16.32Z"/>
    </g>
    <path class="cls-2" d="m672.19,934.67c24.46-14.66,44.86-33.92,43.24-36.54-1-1.62-13.36,7.68-32.88,13.82-53.36,12.46-72.31-5.47-128.77,27.59,93.05-95.85,192.45-39.78,181.34-129.27,5.24,7.7,25.63,39.48,18.49,77.94-4.14,22.3-15.65,36.65-24.01,46.82-28.98,35.25-68.02,46.02-87.32,50.99-18.67,7.52-45.52,14.63-73.79,7.1-55.91-14.91-80.84-77.42-119.64-174.23-38.84-96.92-73.14-195.77-116.23-290.87-12.5-27.58-36.85-99.36-85.55-242.92-4.67-13.78-15.17-45.68-5.55-82.48,1.16-4.44,7.02-25.87,24.57-48.38,36.91-47.34,99.84-66.5,150.74-62.85,25,1.79,45.67,8.99,60.87,14.28,19.3,6.72,40.78,14.4,63.65,31.93,12.04,9.23,30.41,25.76,46.26,52.41,6.79,37.05,13.58,74.09,20.37,111.13-1.52,5.76-3.04,11.52-4.56,17.28,4.44,5.61,8.87,11.21,13.31,16.82-2.36,5.66-4.71,11.32-7.07,16.99,4.99,3.28,9.99,6.55,14.98,9.83-1.69,4.74-3.37,9.49-5.06,14.23,4.18,3.58,8.37,7.16,12.55,10.75,27.59,93.6,38.74,133.66,41.33,145.48.02.08.23,1.05.25,1.15.91,4.16,4.09,18.72,8.33,37.7,2.51,11.26,5.42,24.16,9.24,40.88,11.74,51.43,23.78,102.11,36.1,152.02,2.59,7.54,9.91,31.98-1.05,57.89-12.56,29.68-44.04,49.3-80.07,49.98,10.42-5.11,27.14-15.64,34.76-34.71,4.16-10.39,4.13-19.63,3.95-34.63-.23-19.17-3.14-34.82-5.71-45.41-69.79-286.76-104.2-387.73-104.2-387.73-9.41-30.93-23.46-77.87-39.88-135.91,2.24-10.94,4.15-26.76,1.87-45.52-1.61-13.2-4.86-24.26-8.06-32.74-7.37-7.14-56.62-53.34-121.96-43.73-60.72,8.94-116.17,63.27-112.17,107.78.99,11.01,6.22,28.15,20.8,40.14,20.44,16.81,46.13,12.71,50.72,11.9-8.87-6.1-22.35-17.48-23.22-32.52-1.75-30.24,48.68-53.88,79.98-61.82,35.99-9.13,84.76-7.15,91.15,11.31,4.64,13.39-14.58,30.98-19.7,35.67-28.45,26.03-66.59,22.4-75.52,21.32,24.06-2.67,41.23-12.18,42.63-23.37.67-5.35-2.44-9.74-2.67-10.07-8.26-11.36-31.49-5.53-35.45-4.54-6.51,1.63-33.18,8.32-35.01,25.78-1.42,13.49,12.85,25.23,23.18,29.99,5.34,2.46,15.74,5.88,32.89,2.05,43.41-9.69,88.46-56.3,79.73-79.51-9.13-24.27-68.29-21.95-76.14-21.64-67.2,2.64-116.72,45.61-140.52,70.28,1.33-5.62,3.54-13.63,7.25-22.85,21.72-54.03,66.78-80.11,74.6-84.49,11.21-6.28,43.85-24,88.15-21.5,14.65.83,47.58,2.69,76.21,26.7,9.71,8.14,34.91,29.25,33.69,57.64-.88,20.63-14.99,34.47-37.1,56.14-5.54,5.44-22.41,21.42-52.52,38.67-21.24,12.17-47.51,27.34-85.44,34.1-18.06,3.22-48.2,6.22-85.27-1.58,6.07,3.07,12.14,6.13,18.22,9.2,15.55,51.48,31.1,102.96,46.66,154.44,2.37-10.99,4.74-21.97,7.1-32.96,14.21-.39,31.54-2.43,50.43-8.31,52.55-16.36,84.1-52.11,97.56-69.66-4.71,20.8-19.85,74.21-69.11,114.74-21.72,17.87-43.62,27.93-60.17,33.73,4.41,13.42,8.81,26.83,13.22,40.25,11.72-3.19,24.42-7.45,37.72-13.18,36.61-15.79,63.85-36.75,82.62-54.28-3.18,16.6-14.51,63.59-56.73,96.87-15.12,11.92-30.33,19.02-42.63,23.37,6.18,19.29,12.35,38.58,18.53,57.86,14.72-3.61,31.97-9.29,50.28-18.42,40.7-20.29,67.23-47.95,82.44-66.91-1.22,15.36-6.93,61.74-44.02,101.74-24.74,26.68-52.47,38.68-67.61,43.95-7.7-8.31-15.41-16.63-23.11-24.94,24.33,51.04,48.66,102.08,72.99,153.12,8.47,4.26,19.67,8.67,33.26,11.04,33.81,5.9,61.4-4.5,73.82-10.17-19.7,20.42-38.93,29.29-50.19,33.34-15.32,5.51-29.9,7.16-38.86,8.17-12.89,1.46-23.88,1.51-31.99,1.2,1.49,8.5,5.66,25.1,18.82,39.03,3.82,4.05,7.72,7.15,11.3,9.53,4.07,2.04,10.19,4.75,17.88,6.77,41.33,10.87,78.17-11.21,96.48-22.18Z"/>
  </g>
</svg>