<?xml version="1.0" encoding="UTF-8"?>
<svg id="Layer_2" data-name="Layer 2" xmlns="http://www.w3.org/2000/svg" viewBox="0 0 643 527">
  <defs>
    <style>
      .cls-1 {
        font-family: Caprasimo-Regular, Caprasimo;
        font-size: 137.68px;
      }

      .cls-1, .cls-2 {
        fill: #ef4a24;
      }
    </style>
  </defs>
  <g id="PLAIN_COLOR_IN_BLACK_IL_" data-name="PLAIN COLOR IN BLACK (IL)">
    <rect width="643" height="527"/>
    <g id="ORIGINAL_TRIM" data-name="ORIGINAL TRIM">
      <path class="cls-2" d="m503.22,139.17c8.2-13.56,3.33-30.53-8.06-36.89-9.71-5.42-23.48-2.75-31.87,6.63l37.91,30c.68.07,1.35.15,2.02.25Z"/>
      <path class="cls-2" d="m465.3,330.86c-4.19-4.3-9.16-10.28-13.42-18.12h0c-.54-.99-1.03-1.98-1.51-2.97l-5.94,3.18c-.2.23-.4.45-.6.68,1.39,1.74,2.86,3.45,4.45,5.09,5.33,5.49,10.81,9.41,15.44,12.2.5-.03,1.02-.05,1.55-.05,0,0,.02,0,.03,0Z"/>
      <path class="cls-2" d="m431.33,262.87c1.09-1.51,4.1-5.67,8.89-7.02-1.21-8.28-1.84-17.15-1.84-26.58,0-.75.03-1.48.04-2.23-.85.2-1.71.34-2.59.4-.38.03-.76.04-1.14.04-2.95,0-5.73-.81-8.19-2.35-1.53,13.94-2.22,29.46-.14,44.62,1.87-2.56,3.54-4.87,4.98-6.87Z"/>
      <path class="cls-2" d="m446.07,181.21c4.59-12.41,10.89-22.42,18.75-29.79,5.72-5.36,12.06-9.04,18.95-11.02l-26.65-21.09c-7.58,14.49-13.14,28.23-17.27,40.73.93,2.35,1.78,4.92,2.51,7.7l3.7,13.47Z"/>
      <path class="cls-2" d="m454.31,431.59c.31,2.69.45,5.49.37,8.37,3.69-1.29,7.39-2.63,11.1-4.03-2.84-.68-5.6-1.57-8.23-2.71-1.13-.49-2.2-1.03-3.24-1.63Z"/>
      <polygon class="cls-2" points="454.67 439.96 454.67 439.96 454.67 439.96 454.67 439.96"/>
      <path class="cls-2" d="m201.56,236.06c.22-.05.43-.1.63-.15-3.15-8.61-6.93-19.28-11.46-32.33-4.09,13.74-6.19,25.94-6.96,36.67,5.52-1.42,9.52-2.37,12.07-2.86.34-.07,2.28-.52,5.71-1.33Z"/>
      <path class="cls-2" d="m273.49,413.26h0c-.17-.42-.34-.84-.51-1.26-1.28-.11-2.55-.24-3.82-.36h-.01c-25.34-2.59-49.15-8.35-69.94-16.83-5.89,1.21-11.16,2.35-15.72,3.39-1.12.25-3.46.86-8.33,2.31-3.96,1.22-7.15,2.07-9.67,2.56-.76.15-1.53.22-2.31.22-.2,0-.39-.03-.59-.04,25.04,32.03,72.26,54.17,132.09,59.41-6.81-13.7-13.35-29.93-21.06-49.05l-.14-.35Z"/>
      <path class="cls-2" d="m436.06,363.1c1.17,4.77,2.34,9.54,3.52,14.29.21.63.42,1.3.63,2.02h0c2.19-.81,4.38-1.64,6.58-2.48v-15.92c-3.6.74-7.18,1.44-10.73,2.09Z"/>
      <path class="cls-2" d="m121.99,300.99c-.14-.32-.29-.6-.43-.91.48,2.77,1.06,5.52,1.75,8.23.27.02.54.04.81.07-.48-1.16-.86-2.43-1.13-3.79-.41-2.09-.8-3.15-1-3.6Z"/>
      <path class="cls-2" d="m212.96,392.05c17.24,5.85,36.46,9.94,57.24,11.98-3.56-8.96-7.08-17.97-10.54-26.93-.46,1.16-1.08,2.26-1.87,3.28-2,2.56-4.38,4.12-7.09,4.64-3.95.76-9.89,1.87-17.66,3.28-7.7,1.4-13.57,2.49-17.46,3.24-.9.17-1.76.34-2.64.51Z"/>
      <path class="cls-2" d="m164.92,367.63c-1.54-7.32-3.81-18.4-6.78-33.06-1.31-6.67-3.04-16.78-5.16-30.12-2.19-13.57-3.77-23.12-4.71-28.43-1.73.26-3.21.42-4.53.5.12.65.24,1.33.37,2.05,1.03,5.66,1.78,12.9,2.3,22.11.55,9.88-3.73,13.73-7.41,15.24l-.18.07c-.51.2-1.04.35-1.57.46,1.79,3.32,2.8,7.36,3.54,11.25.32,1.62.61,3.61.89,5.99,1.62-1.12,3.23-1.57,4.09-1.73.64-.12,1.29-.19,1.94-.19,2.52,0,7.22.94,10.37,7.27.99,1.95,1.68,3.96,2.03,5.93,1.22,6.73,2.15,13.85,2.81,21.18.65.5,1.32.99,1.99,1.49Z"/>
      <path class="cls-2" d="m156.98,245.4c10.04-.96,13.53-1.63,14.72-1.95,1.32-.36,2.58-.7,3.8-1.02.7-14.55,3.78-32.02,11.01-52.56-5.26-15.26-11.41-33.25-18.59-54.29-12.04,19.66-38.54,67.15-46.14,116.47,1.18-.26,2.35-.5,3.48-.72.73-.14,1.48-.21,2.22-.21,1.16,0,2.25.15,3.29.45,2.01-1.98,4.53-3.29,7.45-3.86,3.24-.63,9.37-1.38,18.75-2.3Z"/>
      <path class="cls-2" d="m228.57,340.14l.09-.19c.06-.11.11-.23.16-.34-3.65-2.22-7.14-4.54-10.45-6.96.52,3.45,1.05,7.13,1.6,11.04.6,4.22,1.06,7.54,1.43,10.13,1.56-2.49,3.86-6.67,7.16-13.68Z"/>
      <path class="cls-2" d="m337.82,474.64c30.36-17.67,40.56-8.09,69.25-14.75,10.5-3.28,17.15-8.25,17.68-7.39.87,1.4-10.1,11.7-23.25,19.53h0c-9.85,5.86-29.66,17.67-51.89,11.86-4.14-1.08-7.43-2.53-9.62-3.62-1.93-1.27-4.02-2.93-6.08-5.09-7.08-7.45-9.32-16.32-10.12-20.86,4.36.17,10.27.14,17.2-.64,4.82-.54,12.66-1.42,20.9-4.37,6.06-2.17,16.4-6.91,26.99-17.82-6.68,3.03-21.52,8.59-39.7,5.44-7.31-1.27-13.33-3.62-17.89-5.9-13.08-27.28-26.17-54.57-39.25-81.85,4.14,4.44,8.29,8.89,12.43,13.33,8.14-2.82,23.06-9.23,36.36-23.49,8.36-8.96,13.75-18.52,17.24-27.2-3.01-3.49-5.77-7.37-8.27-11.62-7.71,6.97-17.5,14.19-29.63,20.21-9.85,4.88-19.12,7.92-27.04,9.85-3.32-10.31-6.64-20.62-9.97-30.93,6.61-2.33,14.79-6.12,22.93-12.49,17.37-13.61,25.01-31.5,28.41-43.14-.11-2.21-.17-4.41-.17-6.59-9.98,8.92-23.9,19.12-42.16,26.95-7.15,3.06-13.98,5.34-20.29,7.05-2.37-7.17-4.74-14.34-7.11-21.52,8.9-3.1,20.68-8.48,32.36-18.03,26.49-21.67,34.63-50.22,37.17-61.34-7.24,9.38-24.21,28.49-52.47,37.24-10.16,3.14-19.48,4.23-27.12,4.44-1.27,5.88-2.54,11.74-3.82,17.62-8.37-27.52-16.73-55.04-25.09-82.56-3.27-1.64-6.53-3.28-9.8-4.92,19.94,4.17,36.15,2.57,45.86.84,20.4-3.61,34.53-11.72,45.95-18.23,10.82-6.16,18.44-12.01,23.21-16.09,7.45,25.88,13.8,46.95,18.24,61.44,0,0,.72,2.09,2.15,6.6,4.05-5.83,8.72-10.8,13.98-14.78.93-.71,1.88-1.37,2.84-2.01,1.15-2.74,2.29-5.48,3.44-8.21-2.39-3-4.77-5.99-7.16-8.99l2.45-9.24c-3.65-19.8-7.3-39.6-10.96-59.41.66-15.18-12.9-26.46-18.12-30.81-15.4-12.84-33.11-13.83-40.99-14.27,0,0,0,0,0,0-8.17-2.83-19.29-6.68-32.74-7.63-27.37-1.96-61.21,8.29-81.06,33.6-9.44,12.03-12.59,23.49-13.21,25.86-5.17,19.67.47,36.73,2.98,44.09,18.27,53.53,30.16,88.37,37.97,109.57,4.8.16,10.28,3.2,11.76,11.35.84,4.66-.05,8.79-2.36,11.96,8.07,17.87,15.59,35.98,22.84,54.21,0,0,.02,0,.03,0,3.23,0,11,1.33,13.23,13.64.13.74.39,2.13,1.99,18.82.3,3.13.58,6.07.83,8.8,7.32,19.04,14.62,38.09,22.25,57.01,20.87,51.75,34.27,85.17,64.34,93.14,15.2,4.03,29.64.22,39.68-3.8,10.38-2.66,31.38-8.41,46.96-27.26,4.5-5.44,10.69-13.11,12.91-25.03,3.84-20.56-7.13-37.55-9.94-41.67,5.97,47.84-47.48,17.87-97.53,69.1ZM209.75,111.2c-7.84-6.41-10.65-15.57-11.19-21.46-2.15-23.79,27.67-52.84,60.33-57.62,4.24-.62,8.35-.8,12.32-.64-10.55,2.76-18.15,6.89-21.72,8.87-4.21,2.34-28.44,16.28-40.12,45.17-2,4.93-3.18,9.21-3.9,12.22,12.8-13.19,39.43-36.16,75.57-37.57,4.22-.17,36.04-1.41,40.95,11.57,4.7,12.41-19.53,37.32-42.88,42.5-9.22,2.05-14.82.22-17.69-1.1-5.56-2.54-13.23-8.82-12.47-16.03.98-9.33,15.33-12.91,18.83-13.78,2.13-.53,14.62-3.65,19.07,2.43.12.18,1.8,2.52,1.44,5.38-.75,5.98-9.99,11.07-22.93,12.49,4.8.58,25.31,2.52,40.61-11.4,2.75-2.51,13.09-11.91,10.59-19.07-3.44-9.87-29.67-10.93-49.02-6.05-16.83,4.24-43.95,16.88-43.01,33.05.47,8.04,7.72,14.12,12.49,17.38-2.47.43-16.28,2.62-27.28-6.36Z"/>
      <path class="cls-2" d="m394.51,260.05c2.02,6.78,4.91,12.22,8.58,16.16,1.23,1.32,2.53,2.27,4,2.92-.1-.44-.2-.88-.29-1.31-2.28-10.15-3.99-17.93-4.48-20.15-.01-.05-.12-.57-.13-.61-1.01-4.58-4.44-17.11-11.9-42.71-.17,2-.3,4.02-.34,6.08-.11,5.73,0,11.04.33,15.79.58,8.33,2.01,16.35,4.25,23.83Z"/>
      <path class="cls-2" d="m401.73,332.62c-2.6,0-5.15-.18-7.66-.51,3.53,13.99,7.27,29.02,11.22,45.16,1.38,5.66,2.95,14.03,3.07,24.28.1,8.02.11,12.96-2.12,18.51-4.1,10.19-13.09,15.82-18.69,18.56,19.38-.36,36.31-10.85,43.06-26.72,5.89-13.85,1.96-26.92.56-30.95-4.18-16.82-8.29-33.82-12.34-50.96-4.2,1.34-8.45,2.18-12.69,2.48-1.48.1-2.96.16-4.41.16Z"/>
    </g>
    <path class="cls-2" d="m605,413c-2.02-2.11-.45-5.18-2-8-1.84-3.36-7.84-5.87-25.02-3.33,3.05-3.57,12.33-15.37,11.92-31.98-.12-4.6-.48-13.96-7.23-22.73-7.41-9.64-17.62-12.22-20.32-12.85-16.01-3.79-36.77,2.89-40.65,15.78-.63,2.11-.74,4.15-.61,5.95.14,1.91.52,3.46.85,4.49,3.45-2.1,15.76-9.05,29.48-5.37,2.93.79,7.7,2.08,11.74,6.34,6.71,7.09,6.02,16.68,5.83,18.71-1.95-1.82-4.27-3.55-7-5-14.65-7.76-30.81-1.71-35,0-2.75,1.14-8.33,3.95-12,10-5.24,8.65-4.39,20.33,2,30,2.46.94,5.49,1.76,9,2,12.68.86,22.11-6.53,25-9-11.2,1.99-19.73-1.33-21-6-1.2-4.39,4.1-9.63,8-12,7.1-4.31,18.54-4.53,23,2,2.25,3.29,2.47,7.9.93,11.47-4.01,9.29-20.5,12.65-27.93,7.53-2.06-1.42-4.05-3.93-8-5-3.09-.84-4.74-1.29-7-1-.84.11-1.38.27-2,0-1.78-.77-2.07-4.11-2-7-.42,1.36-4.09,13.75,3,22,6.41,7.47,17.37,6.6,24.23,6.05,2.68-.22,10.25-.79,18.08-5.4,6.32-3.71,7.14-6.74,11.33-7.25,7.61-.94,10.96,8.67,18.65,11.36,5.77,2.01,15.33.98,31.71-13.76-6.51,2.8-14.03,5.09-17,2Z"/>
    <text class="cls-1" transform="translate(443.69 426.04)"><tspan x="0" y="0">5</tspan></text>
    <path class="cls-2" d="m151.26,346.57c1.27,7.03,2.23,14.4,2.86,22.11.47,7.37.95,14.74,1.42,22.11.24,3.32-2.14,5.46-7.13,6.43-2.72.53-7.99,1.36-15.81,2.51-7.82,1.15-13.09,1.98-15.81,2.51-16.25,3.14-29.33,6.13-39.24,8.97l-10.59,2.97c-.74.14-1.54-.37-2.42-1.55-.78-1.01-1.25-2.05-1.41-3.12-.41-2.43,0-4.16,1.2-5.19.56-.54,1.76-1.04,3.6-1.52,1.28-.25,3.42-.75,6.43-1.52,4.62-1.2,6.09-5.92,4.44-14.16-.56-2.7-2.18-10.22-4.88-22.54-2.17-9.79-4.04-19-5.6-27.63-.02-.12-1.01-6.29-2.98-18.51-1.97-12.22-3.1-19.16-3.4-20.81-.8-4.43-2.72-7.7-5.75-9.81-1.02-.72-4.4-1.1-10.14-1.16-4.66-.14-7.22-1.51-7.7-4.11-.61-3.37-.04-5.22,1.72-5.56-.74.14,3.16-.29,11.68-1.3,8.65-1.03,17.74-2.47,27.27-4.31,13.37-2.59,23.36-4.84,29.98-6.76,6.62-1.92,12.6-3.4,17.94-4.43,2.27-.44,4.19,2,5.74,7.31.45,1.56,1.3,5.79,2.55,12.69.95,5.25,1.67,12.25,2.17,21.01.2,3.68-.4,5.82-1.82,6.4-.65.25-1.36-.06-2.13-.91-.77-.86-1.32-2.14-1.66-3.84-.44-2.23-.97-4.05-1.58-5.46-3.22-7.37-7.76-12.43-13.63-15.2-4.57-2.23-9.28-2.87-14.11-1.94-.58.11-1,.67-1.29,1.67-.28,1-.34,1.94-.18,2.83.63,3.48,1.38,7.33,2.24,11.56,1.73,8.45,2.98,14.8,3.75,19.05.68,3.77,2.13,5.45,4.34,5.02.26-.05,1.39-.51,3.4-1.39,2.01-.88,3.14-1.34,3.4-1.39,3.1-.6,6.04-.37,8.81.68,2.06.76,3.72,4.48,5,11.14.83,4.24,1.52,11.72,2.06,22.45.25,4.6-.25,7.02-1.48,7.26-1.29.25-2.16-.65-2.6-2.71-.14-.58-.31-1.53-.51-2.84l-.58-3.19c-.78-4.31-2.78-8.67-5.99-13.06-3.65-4.98-7.2-7.14-10.66-6.47-.48.09-.96,1.01-1.44,2.76,1.2,6.8,2.83,17.24,4.9,31.3,2.07,14.06,3.05,20.83,2.96,20.3.51,2.84,1.46,4.12,2.83,3.86,4.96-.96,10.34-6.86,16.16-17.71,3.93-7.37,6.55-13.83,7.85-19.41.37-1.6.5-3.8.37-6.59-.12-2.79.42-4.3,1.64-4.54.86-.17,1.71.59,2.54,2.26.62,1.23,1.03,2.4,1.23,3.52Z"/>
    <path class="cls-2" d="m247.47,327.12c.21,1.18.84,7.21,1.88,18.08,1.18,12.19,1.92,21.19,2.21,27,.04.97-.24,1.85-.86,2.64-.62.79-1.18,1.24-1.69,1.34-3.9.75-9.76,1.84-17.56,3.26-7.8,1.42-13.66,2.5-17.56,3.26-13.02,2.52-23.82,4.76-32.4,6.72-1.81.41-4.78,1.23-8.89,2.45-3.7,1.14-6.64,1.93-8.81,2.35-.86.17-1.86-.04-2.99-.62-1.42-.7-2.26-1.79-2.53-3.27-.55-3.01-.32-5.08.67-6.18.03,0,1.02-.5,2.96-1.49,1.56-.36,4.22-1.3,7.98-2.83,4.05-2.13,5.58-5.67,4.58-10.61-1.51-7.05-4.01-19.19-7.5-36.44-1.28-6.54-2.98-16.46-5.09-29.75-2.39-14.83-4.04-24.78-4.96-29.87-.37-2.07-1.29-3.82-2.74-5.25-1.17-1.18-2.07-1.71-2.67-1.59-5.12.99-8.64,1.4-10.56,1.22-.97-.06-1.96-.14-2.98-.25-.99-.54-1.76-2.29-2.29-5.24-.2-1.12.05-2.21.75-3.26.81-1.2,1.98-1.94,3.52-2.24,2.94-.57,8.92-1.3,17.93-2.18,8.17-.78,13.55-1.52,16.14-2.2,11.83-3.21,19.68-5.18,23.55-5.93.26-.05,2.27-.52,6.05-1.4,3.78-.88,5.8-1.35,6.05-1.4,2.17-.42,3.54.88,4.08,3.89.77,4.25-1.13,6.82-5.7,7.71-.22.04-1.62.67-4.18,1.86-2.56,1.2-3.99,1.83-4.28,1.88-2.88.56-3.94,2.48-3.18,5.75,2.71,11.83,6.03,28.65,9.99,50.45,1.37,7.56,2.93,17.55,4.68,29.97,1.75,12.41,2.66,18.8,2.73,19.15.46,2.54,1.4,3.8,2.82,3.77.46-.03.93-.09,1.41-.18,3.45-.67,6.51-2.79,9.18-6.36,2.45-3.28,5.62-9.07,9.52-17.35.95-1.9,1.87-3.82,2.78-5.77.67-1.78,1.05-4.61,1.15-8.48.13-5.65.71-8.58,1.74-8.78,2.56-.49,4.26,1.56,5.09,6.17Z"/>
    <path class="cls-2" d="m496.32,147.67c9.59,0,18.05,3.37,25.38,10.1,7.33,6.73,13.06,16.18,17.21,28.33,4.14,12.15,6.22,26.35,6.22,42.6s-1.99,31.05-5.98,43.73c-3.99,12.68-9.62,22.61-16.91,29.79-7.28,7.18-15.92,10.78-25.92,10.78s-18.85-3.48-26.15-10.44c-7.31-6.96-12.93-16.72-16.87-29.29-3.94-12.56-5.92-27.24-5.92-44.01s2.09-30.28,6.29-42.55c4.19-12.26,9.96-21.84,17.31-28.72,7.35-6.88,15.8-10.33,25.34-10.33Zm14.79,115.9c0-11.89-.7-23.43-2.08-34.65-.36-2.86-.94-6.66-1.75-11.4-.81-4.74-1.83-9.74-3.06-15.01-1.23-5.27-2.65-10.27-4.24-15.01-1.59-4.74-3.34-8.59-5.24-11.57-1.91-2.97-3.93-4.46-6.08-4.46-2.29,0-3.91,1.58-4.87,4.74-.96,3.16-1.55,6.75-1.75,10.78-.2,4.03-.3,7.39-.3,10.1,0,9.33.46,18.64,1.38,27.93.92,9.29,2.34,18.34,4.27,27.14.54,2.56,1.35,5.87,2.45,9.93,1.1,4.06,2.41,8.13,3.93,12.19,1.52,4.06,3.17,7.49,4.94,10.27,1.77,2.78,3.6,4.18,5.48,4.18,2.29,0,3.91-1.54,4.87-4.63.96-3.08,1.55-6.62,1.75-10.61.2-3.99.3-7.3.3-9.93Z"/>
    <path class="cls-2" d="m449.3,273.57c.23,3.26.05,6.43-.54,9.52-.59,3.09-1.4,6.01-2.45,8.76-2.57,6.87-6.04,12.58-10.41,17.12-4.37,4.54-9.18,8-14.45,10.38-5.27,2.38-10.58,3.75-15.94,4.13-11.33.79-21.45-1.94-30.35-8.19-8.9-6.25-16.1-15.36-21.59-27.32-5.5-11.96-8.81-26-9.94-42.13-.76-10.88-.14-21.27,1.85-31.19,2-9.92,5.15-18.82,9.47-26.71,4.31-7.89,9.6-14.2,15.87-18.96,6.27-4.75,13.29-7.4,21.07-7.94,2.42-.17,4.86-.13,7.31.1,2.45.24,4.87.79,7.26,1.67,1.49.57,2.98,1.2,4.48,1.92,1.5.71,3.02,1.02,4.57.91,1.39-.1,2.6-.68,3.64-1.76,1.04-1.08,2.06-2.13,3.08-3.17,1.01-1.04,2.14-1.6,3.38-1.69,2.63-.18,4.44.88,5.43,3.19.99,2.31,1.87,4.93,2.65,7.85l9.38,34.14c.27.95.45,2.01.53,3.2.24,3.48-.55,6.16-2.39,8.03-1.84,1.88-3.83,2.89-6,3.04-2.52.18-4.66-.94-6.41-3.34-1.75-2.41-3.42-5.43-5.02-9.07-1.6-3.64-3.42-7.25-5.46-10.83-2.04-3.58-4.57-6.52-7.61-8.84-3.03-2.32-6.9-3.31-11.58-2.98s-8.17,2.3-10.76,5.94c-2.59,3.64-4.45,8.19-5.56,13.66-1.12,5.47-1.74,11.22-1.86,17.25-.12,6.03,0,11.56.35,16.59.63,9.03,2.17,17.62,4.6,25.78,2.43,8.16,5.97,14.73,10.62,19.72,4.65,4.99,10.6,7.23,17.86,6.72,3.86-.27,7.29-1.64,10.27-4.12,2.98-2.48,5.63-5.3,7.95-8.48,2.31-3.17,4.33-5.95,6.05-8.34,1.72-2.39,3.23-3.63,4.51-3.72,1.91-.13,3.36.75,4.38,2.65,1.01,1.9,1.61,4.07,1.78,6.51Z"/>
  </g>
</svg>