<?xml version="1.0" encoding="UTF-8"?>
<svg id="Layer_2" data-name="Layer 2" xmlns="http://www.w3.org/2000/svg" viewBox="0 0 643 527">
  <defs>
    <style>
      .cls-1 {
        font-size: 17px;
      }

      .cls-1, .cls-2 {
        font-family: Caprasimo-Regular, Caprasimo;
      }

      .cls-1, .cls-2, .cls-3 {
        fill: #fff;
      }

      .cls-2 {
        font-size: 133.13px;
      }

      .cls-4 {
        letter-spacing: 0em;
      }

      .cls-5 {
        letter-spacing: -.09em;
      }

      .cls-6 {
        letter-spacing: .02em;
      }

      .cls-7 {
        letter-spacing: -.03em;
      }

      .cls-8 {
        letter-spacing: 0em;
      }

      .cls-9 {
        letter-spacing: -.07em;
      }

      .cls-10 {
        letter-spacing: -.04em;
      }
    </style>
  </defs>
  <g id="WHITE_IN_BLACK_LA_" data-name="WHITE IN BLACK (LA)">
    <rect width="643" height="527"/>
    <g id="ORIGINAL_TRIM" data-name="ORIGINAL TRIM">
      <path class="cls-3" d="m491.85,126.26c7.93-13.11,3.22-29.52-7.79-35.67-9.39-5.24-22.7-2.66-30.82,6.41l36.65,29.01c.66.07,1.31.15,1.96.24Z"/>
      <path class="cls-3" d="m455.18,311.61c-4.05-4.15-8.86-9.94-12.98-17.52h0c-.52-.96-.99-1.91-1.46-2.87l-5.75,3.08c-.19.22-.39.44-.58.66,1.35,1.68,2.76,3.34,4.3,4.92,5.15,5.31,10.45,9.1,14.93,11.79.48-.03.98-.05,1.5-.05,0,0,.02,0,.03,0Z"/>
      <path class="cls-3" d="m422.33,245.87c1.05-1.46,3.96-5.48,8.59-6.79-1.17-8-1.78-16.58-1.78-25.7,0-.73.03-1.44.04-2.16-.82.19-1.66.33-2.5.39-.37.03-.74.04-1.1.04-2.85,0-5.54-.79-7.92-2.27-1.48,13.48-2.14,28.49-.14,43.14,1.8-2.48,3.42-4.7,4.82-6.65Z"/>
      <path class="cls-3" d="m436.58,166.91c4.44-12,10.53-21.68,18.13-28.8,5.53-5.18,11.66-8.74,18.33-10.66l-25.77-20.39c-7.33,14.01-12.71,27.29-16.7,39.38.9,2.27,1.72,4.76,2.43,7.44l3.58,13.03Z"/>
      <path class="cls-3" d="m444.55,409.02c.3,2.6.44,5.3.35,8.1,3.57-1.24,7.14-2.55,10.73-3.9-2.75-.66-5.41-1.52-7.95-2.62-1.09-.47-2.13-1-3.13-1.57Z"/>
      <polygon class="cls-3" points="444.9 417.11 444.9 417.11 444.9 417.11 444.9 417.11"/>
      <path class="cls-3" d="m200.15,219.95c.22-.05.41-.1.61-.14-3.05-8.32-6.7-18.64-11.08-31.26-3.95,13.29-5.98,25.08-6.73,35.46,5.34-1.38,9.2-2.29,11.67-2.77.33-.07,2.2-.51,5.52-1.28Z"/>
      <path class="cls-3" d="m269.71,391.29h0c-.17-.4-.33-.81-.49-1.22-1.24-.11-2.47-.23-3.69-.35h-.01c-24.5-2.5-47.52-8.07-67.63-16.27-5.69,1.17-10.79,2.27-15.2,3.28-1.08.25-3.34.83-8.06,2.23-3.83,1.18-6.91,2-9.35,2.47-.73.14-1.48.21-2.23.21-.19,0-.38-.03-.57-.04,24.21,30.97,69.87,52.38,127.73,57.44-6.58-13.24-12.91-28.94-20.36-47.43l-.14-.34Z"/>
      <path class="cls-3" d="m426.91,342.79c1.13,4.62,2.26,9.23,3.4,13.82.2.6.41,1.26.61,1.95h0c2.12-.78,4.24-1.58,6.36-2.39v-15.4c-3.48.72-6.94,1.39-10.38,2.02Z"/>
      <path class="cls-3" d="m123.22,282.73c-.13-.31-.28-.58-.42-.88.47,2.68,1.03,5.33,1.69,7.96.26.02.52.04.78.06-.47-1.12-.83-2.35-1.09-3.66-.4-2.03-.78-3.05-.97-3.48Z"/>
      <path class="cls-3" d="m211.19,370.78c16.67,5.65,35.25,9.62,55.35,11.59-3.45-8.67-6.84-17.38-10.19-26.04-.44,1.12-1.04,2.19-1.81,3.17-1.94,2.47-4.24,3.98-6.85,4.48-3.82.74-9.56,1.81-17.07,3.17-7.45,1.35-13.13,2.41-16.88,3.13-.87.17-1.7.33-2.55.5Z"/>
      <path class="cls-3" d="m164.73,347.17c-1.49-7.08-3.69-17.79-6.55-31.97-1.27-6.45-2.94-16.23-4.99-29.13-2.11-13.12-3.64-22.36-4.55-27.49-1.67.25-3.11.4-4.38.48.12.63.24,1.28.36,1.98.99,5.48,1.72,12.47,2.22,21.38.53,9.55-3.6,13.28-7.16,14.73l-.17.07c-.5.19-1,.34-1.52.45,1.73,3.21,2.7,7.11,3.42,10.88.31,1.56.59,3.49.86,5.79,1.56-1.09,3.12-1.51,3.95-1.68.62-.12,1.25-.18,1.88-.18,2.44,0,6.98.91,10.02,7.03.95,1.89,1.62,3.83,1.97,5.74,1.18,6.5,2.08,13.39,2.72,20.48.63.48,1.28.96,1.92,1.44Z"/>
      <path class="cls-3" d="m157.05,228.99c9.71-.93,13.08-1.58,14.23-1.88,1.28-.35,2.5-.67,3.68-.99.68-14.07,3.65-30.96,10.65-50.82-5.09-14.76-11.03-32.15-17.98-52.5-11.64,19.01-37.26,64.93-44.61,112.62,1.15-.25,2.27-.48,3.36-.69.71-.14,1.43-.21,2.15-.21,1.12,0,2.18.15,3.18.43,1.94-1.92,4.38-3.18,7.21-3.73,3.13-.61,9.06-1.33,18.13-2.23Z"/>
      <path class="cls-3" d="m226.28,320.59l.09-.18c.05-.11.1-.22.16-.33-3.53-2.14-6.9-4.39-10.11-6.73.5,3.34,1.02,6.9,1.55,10.67.58,4.08,1.03,7.29,1.39,9.8,1.51-2.41,3.73-6.45,6.92-13.22Z"/>
      <path class="cls-3" d="m331.91,450.65c29.36-17.09,39.22-7.82,66.96-14.26,10.15-3.17,16.58-7.98,17.1-7.14.84,1.35-9.77,11.31-22.49,18.89h0c-9.52,5.67-28.68,17.08-50.17,11.47-4-1.04-7.18-2.44-9.3-3.5-1.86-1.23-3.89-2.83-5.88-4.93-6.84-7.2-9.01-15.78-9.79-20.17,4.22.16,9.93.13,16.64-.62,4.66-.52,12.24-1.37,20.21-4.22,5.86-2.09,15.86-6.68,26.1-17.23-6.46,2.93-20.81,8.31-38.39,5.26-7.07-1.23-12.89-3.5-17.3-5.71-12.65-26.38-25.3-52.77-37.96-79.15,4,4.3,8.01,8.6,12.02,12.89,7.87-2.72,22.29-8.93,35.16-22.72,8.08-8.66,13.29-17.9,16.67-26.3-2.91-3.37-5.58-7.12-8-11.24-7.46,6.74-16.92,13.73-28.65,19.54-9.52,4.72-18.49,7.66-26.15,9.52-3.21-9.97-6.42-19.94-9.64-29.91,6.4-2.25,14.31-5.92,22.17-12.08,16.8-13.16,24.19-30.46,27.47-41.71-.11-2.14-.17-4.26-.17-6.37-9.65,8.62-23.11,18.49-40.77,26.06-6.92,2.96-13.52,5.16-19.62,6.81-2.29-6.94-4.58-13.87-6.87-20.81,8.61-3,19.99-8.2,31.29-17.44,25.62-20.95,33.49-48.56,35.94-59.31-7,9.07-23.41,27.55-50.73,36.01-9.82,3.04-18.84,4.09-26.22,4.3-1.23,5.68-2.46,11.36-3.69,17.04-8.09-26.61-16.18-53.22-24.26-79.83-3.16-1.59-6.32-3.17-9.47-4.76,19.28,4.03,34.95,2.48,44.34.82,19.72-3.49,33.39-11.34,44.43-17.63,10.46-5.96,17.83-11.61,22.44-15.55,7.2,25.02,13.35,45.39,17.63,59.41,0,0,.69,2.02,2.08,6.38,3.91-5.64,8.43-10.44,13.52-14.29.9-.68,1.82-1.33,2.75-1.94,1.11-2.65,2.21-5.3,3.32-7.94-2.31-2.9-4.61-5.79-6.92-8.69l2.37-8.93c-3.53-19.15-7.06-38.29-10.59-57.44.63-14.67-12.47-25.59-17.52-29.79-14.89-12.41-32.01-13.37-39.63-13.8,0,0,0,0,0,0-7.9-2.73-18.65-6.46-31.65-7.38-26.47-1.89-59.19,8.02-78.38,32.49-9.13,11.64-12.17,22.71-12.78,25.01-5,19.02.46,35.51,2.89,42.63,17.66,51.76,29.16,85.45,36.71,105.95,4.64.16,9.94,3.1,11.37,10.97.82,4.51-.05,8.5-2.28,11.57,7.8,17.28,15.07,34.79,22.08,52.41,0,0,.02,0,.03,0,3.13,0,10.63,1.29,12.79,13.19.13.72.37,2.06,1.92,18.2.29,3.03.56,5.87.8,8.51,7.08,18.41,14.14,36.84,21.51,55.13,20.18,50.04,33.14,82.35,62.22,90.06,14.7,3.89,28.66.22,38.37-3.67,10.04-2.57,30.34-8.14,45.41-26.36,4.35-5.26,10.33-12.67,12.49-24.2,3.71-19.88-6.89-36.31-9.62-40.29,5.78,46.26-45.91,17.28-94.3,66.82ZM208.08,99.22c-7.58-6.2-10.3-15.06-10.82-20.75-2.08-23.01,26.76-51.09,58.33-55.71,4.1-.6,8.08-.77,11.91-.62-10.2,2.67-17.55,6.66-21,8.58-4.07,2.26-27.5,15.74-38.79,43.67-1.93,4.77-3.08,8.91-3.77,11.81,12.38-12.75,38.13-34.96,73.07-36.33,4.08-.16,34.85-1.36,39.59,11.19,4.54,12-18.89,36.09-41.46,41.1-8.92,1.98-14.33.21-17.1-1.06-5.37-2.46-12.79-8.53-12.05-15.5.95-9.03,14.82-12.48,18.21-13.33,2.06-.51,14.14-3.53,18.43,2.35.12.17,1.74,2.44,1.39,5.21-.73,5.78-9.66,10.7-22.17,12.08,4.64.56,24.48,2.43,39.27-11.02,2.66-2.42,12.66-11.52,10.24-18.44-3.32-9.54-28.68-10.57-47.4-5.85-16.28,4.1-42.5,16.32-41.59,31.96.45,7.77,7.46,13.66,12.07,16.81-2.39.42-15.75,2.54-26.38-6.15Z"/>
      <path class="cls-3" d="m386.73,243.14c1.96,6.56,4.75,11.82,8.3,15.63,1.19,1.27,2.45,2.2,3.87,2.82-.09-.42-.19-.85-.28-1.26-2.2-9.81-3.86-17.34-4.33-19.49-.01-.05-.12-.55-.13-.59-.98-4.43-4.3-16.54-11.51-41.29-.16,1.93-.29,3.89-.33,5.88-.11,5.54,0,10.68.32,15.26.56,8.05,1.94,15.8,4.1,23.04Z"/>
      <path class="cls-3" d="m393.71,313.31c-2.52,0-4.98-.17-7.4-.49,3.41,13.53,7.03,28.06,10.85,43.67,1.34,5.47,2.85,13.56,2.97,23.47.09,7.75.11,12.53-2.05,17.9-3.96,9.86-12.66,15.3-18.08,17.94,18.74-.35,35.11-10.49,41.64-25.84,5.7-13.39,1.89-26.03.55-29.92-4.04-16.26-8.01-32.7-11.93-49.28-4.06,1.3-8.17,2.11-12.27,2.4-1.43.1-2.86.15-4.26.15Z"/>
    </g>
    <path class="cls-3" d="m590.26,391.04c-1.96-2.04-.43-5.01-1.93-7.74-1.78-3.25-7.58-5.67-24.19-3.22,2.95-3.45,11.93-14.86,11.52-30.93-.11-4.45-.47-13.5-6.99-21.98-7.16-9.32-17.04-11.81-19.65-12.43-15.48-3.66-35.55,2.79-39.3,15.26-.61,2.04-.72,4.01-.59,5.75.14,1.85.5,3.35.82,4.34,3.33-2.03,15.24-8.75,28.51-5.19,2.84.76,7.45,2.01,11.35,6.13,6.49,6.86,5.82,16.13,5.64,18.09-1.89-1.76-4.13-3.44-6.77-4.83-14.17-7.5-29.79-1.66-33.84,0-2.66,1.1-8.06,3.81-11.6,9.67-5.06,8.36-4.25,19.66,1.93,29.01,2.38.91,5.31,1.7,8.7,1.93,12.26.83,21.38-6.31,24.17-8.7-10.83,1.92-19.07-1.29-20.31-5.8-1.16-4.24,3.96-9.31,7.74-11.6,6.87-4.17,17.92-4.38,22.24,1.93,2.17,3.18,2.39,7.64.9,11.09-3.88,8.98-19.82,12.23-27,7.28-1.99-1.37-3.92-3.8-7.74-4.83-2.98-.81-4.59-1.25-6.77-.97-.81.1-1.33.26-1.93,0-1.72-.74-2-3.97-1.93-6.77-.41,1.32-3.95,13.29,2.9,21.27,6.2,7.22,16.8,6.38,23.43,5.85,2.6-.21,9.91-.77,17.48-5.22,6.11-3.59,6.91-6.52,10.96-7.01,7.36-.9,10.6,8.38,18.04,10.98,5.58,1.95,14.82.95,30.66-13.31-6.3,2.71-13.57,4.93-16.44,1.93Z"/>
    <text class="cls-2" transform="translate(434.29 403.65)"><tspan x="0" y="0">5</tspan></text>
    <path class="cls-3" d="m151.52,326.81c1.23,6.8,2.15,13.92,2.77,21.38.46,7.13.92,14.25,1.38,21.38.23,3.21-2.07,5.28-6.89,6.21-2.63.51-7.72,1.32-15.29,2.42-7.56,1.11-12.66,1.92-15.29,2.42-15.71,3.04-28.36,5.93-37.95,8.67l-10.24,2.87c-.71.14-1.49-.36-2.34-1.5-.75-.98-1.21-1.98-1.36-3.02-.39-2.35,0-4.02,1.16-5.01.55-.52,1.71-1.01,3.48-1.47,1.24-.24,3.31-.73,6.22-1.47,4.46-1.16,5.89-5.72,4.29-13.69-.54-2.61-2.11-9.88-4.72-21.8-2.1-9.47-3.91-18.37-5.42-26.72-.02-.11-.98-6.08-2.88-17.89-1.9-11.81-3-18.52-3.29-20.12-.78-4.29-2.63-7.44-5.56-9.48-.99-.7-4.26-1.07-9.81-1.12-4.51-.13-6.99-1.46-7.44-3.97-.59-3.26-.03-5.05,1.67-5.38-.71.14,3.05-.28,11.3-1.25,8.37-1,17.16-2.39,26.37-4.17,12.93-2.5,22.59-4.68,28.99-6.54,6.4-1.86,12.18-3.29,17.35-4.29,2.2-.42,4.05,1.93,5.55,7.07.43,1.51,1.26,5.6,2.46,12.27.92,5.08,1.62,11.85,2.1,20.31.2,3.56-.39,5.63-1.76,6.18-.63.24-1.31-.05-2.06-.88-.74-.83-1.28-2.07-1.61-3.72-.42-2.16-.93-3.92-1.53-5.28-3.12-7.12-7.51-12.02-13.18-14.7-4.42-2.15-8.97-2.78-13.64-1.87-.56.11-.97.65-1.24,1.61-.27.97-.33,1.88-.18,2.73.61,3.36,1.33,7.09,2.17,11.18,1.67,8.17,2.88,14.31,3.63,18.42.66,3.65,2.06,5.27,4.19,4.85.25-.05,1.34-.5,3.29-1.35,1.94-.85,3.04-1.3,3.29-1.35,3-.58,5.84-.36,8.52.66,1.99.74,3.6,4.33,4.83,10.77.81,4.1,1.47,11.34,1.99,21.7.24,4.45-.24,6.79-1.43,7.02-1.25.24-2.09-.63-2.51-2.62-.13-.57-.3-1.48-.5-2.74l-.56-3.09c-.76-4.17-2.69-8.38-5.79-12.63-3.53-4.82-6.96-6.9-10.3-6.26-.46.09-.93.98-1.39,2.66,1.16,6.58,2.74,16.67,4.74,30.27,2,13.6,2.95,20.14,2.86,19.63.5,2.74,1.41,3.99,2.74,3.73,4.79-.93,10-6.64,15.62-17.13,3.8-7.12,6.33-13.38,7.6-18.77.36-1.55.48-3.67.36-6.37-.12-2.69.41-4.16,1.58-4.39.84-.16,1.65.57,2.46,2.19.6,1.19,1,2.32,1.19,3.41Z"/>
    <path class="cls-3" d="m244.55,308c.21,1.15.81,6.97,1.82,17.48,1.14,11.78,1.86,20.49,2.14,26.11.04.94-.24,1.79-.83,2.56-.6.77-1.14,1.2-1.64,1.29-3.77.73-9.43,1.78-16.98,3.15-7.55,1.37-13.21,2.42-16.98,3.15-12.59,2.43-23.03,4.6-31.33,6.5-1.75.4-4.62,1.19-8.6,2.37-3.58,1.11-6.42,1.86-8.52,2.27-.84.16-1.8-.04-2.89-.59-1.37-.68-2.19-1.73-2.45-3.16-.53-2.91-.31-4.91.65-5.98.03,0,.98-.49,2.86-1.44,1.5-.35,4.08-1.26,7.72-2.73,3.92-2.06,5.39-5.48,4.43-10.26-1.46-6.81-3.88-18.56-7.25-35.24-1.24-6.32-2.88-15.91-4.92-28.77-2.31-14.34-3.91-23.96-4.8-28.88-.36-2-1.25-3.69-2.65-5.08-1.14-1.14-2-1.65-2.58-1.54-4.95.96-8.35,1.35-10.21,1.18-.94-.05-1.9-.13-2.88-.24-.96-.52-1.7-2.21-2.22-5.07-.2-1.08.04-2.14.72-3.16.78-1.16,1.92-1.88,3.4-2.17,2.84-.55,8.62-1.25,17.34-2.11,7.9-.76,13.1-1.47,15.6-2.13,11.44-3.1,19.03-5.01,22.78-5.74.25-.05,2.2-.5,5.85-1.35,3.65-.85,5.6-1.31,5.85-1.35,2.1-.41,3.42.85,3.95,3.76.75,4.11-1.09,6.6-5.52,7.45-.22.04-1.56.64-4.04,1.8-2.48,1.16-3.86,1.77-4.14,1.82-2.78.54-3.81,2.39-3.07,5.56,2.62,11.44,5.84,27.7,9.66,48.79,1.33,7.31,2.83,16.97,4.53,28.98,1.69,12,2.57,18.18,2.63,18.52.45,2.46,1.35,3.67,2.72,3.64.44-.03.9-.09,1.36-.18,3.34-.65,6.3-2.69,8.87-6.15,2.37-3.18,5.44-8.77,9.21-16.77.92-1.83,1.81-3.69,2.69-5.58.65-1.72,1.02-4.45,1.11-8.2.13-5.46.69-8.29,1.68-8.49,2.47-.48,4.11,1.51,4.92,5.97Z"/>
    <path class="cls-3" d="m485.17,134.48c9.27,0,17.45,3.26,24.54,9.77,7.09,6.51,12.63,15.64,16.64,27.39,4.01,11.75,6.01,25.48,6.01,41.19s-1.93,30.03-5.79,42.29c-3.86,12.26-9.31,21.86-16.35,28.81-7.04,6.95-15.4,10.42-25.06,10.42s-18.22-3.37-25.29-10.09c-7.06-6.73-12.5-16.17-16.32-28.32-3.81-12.15-5.72-26.33-5.72-42.56s2.03-29.28,6.08-41.14c4.05-11.86,9.63-21.12,16.74-27.77,7.11-6.66,15.28-9.99,24.51-9.99Zm14.3,112.07c0-11.49-.67-22.66-2.02-33.5-.35-2.76-.91-6.44-1.69-11.02-.78-4.58-1.77-9.42-2.96-14.51-1.19-5.09-2.56-9.93-4.1-14.51-1.54-4.58-3.23-8.31-5.07-11.19-1.84-2.87-3.8-4.31-5.88-4.31-2.21,0-3.78,1.53-4.71,4.58-.93,3.06-1.49,6.53-1.69,10.42-.2,3.89-.29,7.15-.29,9.77,0,9.02.44,18.02,1.33,27.01.89,8.99,2.26,17.73,4.13,26.24.52,2.47,1.31,5.67,2.37,9.6,1.06,3.93,2.33,7.86,3.8,11.79,1.47,3.93,3.07,7.24,4.78,9.93,1.71,2.69,3.48,4.04,5.3,4.04,2.21,0,3.78-1.49,4.71-4.47.93-2.98,1.49-6.4,1.69-10.26.2-3.86.29-7.06.29-9.6Z"/>
    <path class="cls-3" d="m439.71,256.22c.22,3.15.05,6.22-.52,9.2-.57,2.99-1.36,5.81-2.37,8.47-2.49,6.65-5.84,12.16-10.06,16.56-4.22,4.39-8.88,7.74-13.97,10.04-5.09,2.3-10.23,3.63-15.41,3.99-10.96.77-20.74-1.87-29.34-7.92-8.61-6.05-15.57-14.85-20.88-26.42-5.31-11.56-8.52-25.14-9.61-40.74-.74-10.52-.14-20.57,1.79-30.16,1.93-9.59,4.98-18.2,9.15-25.82,4.17-7.63,9.29-13.73,15.34-18.33,6.06-4.59,12.85-7.16,20.37-7.68,2.34-.16,4.69-.13,7.06.1,2.37.23,4.71.77,7.02,1.61,1.44.55,2.88,1.17,4.33,1.85,1.45.69,2.92.98,4.42.88,1.34-.09,2.52-.66,3.52-1.7,1-1.04,2-2.06,2.98-3.07.98-1,2.07-1.55,3.26-1.63,2.54-.18,4.29.85,5.25,3.08.96,2.24,1.81,4.76,2.56,7.59l9.07,33.01c.26.92.44,1.95.52,3.09.24,3.36-.53,5.95-2.31,7.76-1.78,1.81-3.71,2.79-5.8,2.94-2.44.17-4.51-.91-6.19-3.23-1.69-2.33-3.31-5.25-4.86-8.77-1.55-3.52-3.31-7.01-5.27-10.47-1.97-3.46-4.42-6.3-7.35-8.54-2.93-2.24-6.67-3.2-11.2-2.88s-7.9,2.22-10.41,5.74c-2.51,3.52-4.3,7.92-5.38,13.21-1.08,5.29-1.68,10.85-1.8,16.68-.12,5.83,0,11.18.34,16.05.61,8.73,2.09,17.04,4.45,24.93,2.35,7.89,5.78,14.25,10.27,19.07,4.49,4.83,10.25,6.99,17.27,6.5,3.74-.26,7.05-1.59,9.93-3.98,2.88-2.39,5.45-5.13,7.68-8.19,2.24-3.07,4.19-5.76,5.85-8.07,1.66-2.31,3.12-3.51,4.36-3.59,1.84-.13,3.25.73,4.23,2.56.98,1.84,1.55,3.94,1.72,6.3Z"/>
    <text class="cls-1" transform="translate(24 499.87)"><tspan x="0" y="0">DESCUBRE NUE</tspan><tspan class="cls-4" x="143.7" y="0">S</tspan><tspan x="154.77" y="0">TRA ESCUE</tspan><tspan class="cls-6" x="258.81" y="0">L</tspan><tspan x="269.83" y="0">A A TR</tspan><tspan class="cls-5" x="331.55" y="0">A</tspan><tspan x="343.99" y="0">VÉS DE NUE</tspan><tspan class="cls-4" x="454.03" y="0">S</tspan><tspan x="465.09" y="0">TRAS </tspan><tspan class="cls-9" x="519.47" y="0">P</tspan><tspan class="cls-10" x="529.83" y="0">Á</tspan><tspan class="cls-8" x="543.19" y="0">GI</tspan><tspan class="cls-7" x="563.71" y="0">N</tspan><tspan x="577.36" y="0">AS</tspan></text>
  </g>
</svg>