<?xml version="1.0" encoding="UTF-8"?>
<svg id="Layer_2" data-name="Layer 2" xmlns="http://www.w3.org/2000/svg" xmlns:xlink="http://www.w3.org/1999/xlink" viewBox="0 0 512 512">
  <defs>
    <style>
      .cls-1 {
        fill: none;
      }

      .cls-2 {
        fill: url(#EL_ECO_PATTERN_16px);
      }
    </style>
    <pattern id="EL_ECO_PATTERN_16px" data-name="EL ECO PATTERN 16px" x="0" y="0" width="16" height="16" patternUnits="userSpaceOnUse" viewBox="0 0 16 16">
      <g>
        <rect class="cls-1" width="16" height="16"/>
        <g>
          <g>
            <path d="m11.84,4.89c-.44-.28-.82-.63-1.12-1.05-.32-.45-.54-.91-.68-1.34-.17-.4-.26-.77-.29-1.12-.45.37-.88.74-1.28,1.1.18.58.44,1.12.78,1.62.43.63.98,1.16,1.62,1.58.2.13.25.39.12.59-.13.2-.39.25-.59.12-.39-.26-.75-.55-1.07-.87-.28-.28-.54-.6-.78-.93-.32-.46-.57-.95-.77-1.47-.2.19-.4.38-.59.57.21.49.48.96.8,1.39.41.54.89,1.01,1.45,1.41.19.13.23.4.1.59-.14.19-.4.23-.59.1-.34-.24-.66-.51-.95-.81-.24-.24-.47-.5-.68-.78-.3-.39-.54-.82-.76-1.26-.18.18-.34.37-.51.56.18.34.42.75.78,1.17.45.54.92.91,1.28,1.16-.31.24-.66.54-1.01.93-.38.42-.67.83-.89,1.18-.18-.34-.47-.81-.95-1.28-.39-.39-.78-.64-1.09-.82-.2.27-.38.54-.56.8.21.3.45.58.72.84.29.27.61.5.95.7.16.09.21.3.12.46-.09.16-.3.21-.46.12-.38-.22-.74-.49-1.06-.79-.05-.05-.1-.1-.15-.15-.18-.18-.35-.38-.5-.58-.52.81-.91,1.48-1.15,1.9l-.12.21c-.39.67-.75,1.36-1.09,2.05l2.11,2.11c1.71-2.08,3.61-4.02,5.63-5.78,1.7-1.48,3.18-2.66,4.48-3.58-.41-.11-.81-.3-1.18-.57-.02-.01-.04-.03-.06-.05Z"/>
            <path d="m15.13,3.99c-.14.24-.31.37-.53.53-.07.06-.2.14-.36.23.02,0,.05,0,.07,0,.23-.03.45.13.48.36.01.09-.01.18-.05.25,0,0,0,0,0,0,.57-.52.43-1.27.43-1.31.02-.08.03-.17.04-.25-.03.06-.05.13-.08.19Z"/>
            <path d="m14.35,2.16c-.13-.32-.35-.64-.65-.97-.05-.05-.09-.1-.14-.15-.32-.32-.65-.56-.98-.71-.43-.2-.88-.25-1.28-.15-.2.05-.36.13-.46.24-.14.14-.2.33-.23.47,0,.31.05.79.23,1.35.06.13.11.25.19.39.04.07.07.13.11.2.22-.3.51-.56.78-.79.27-.23.66-.19.91.04l.89.94c.14.15.29.31.45.38.11.05.21.03.24,0,.01-.01.05-.06.07-.19.08-.41-.03-.79-.14-1.05Z"/>
            <path d="m13.11,3.6l-.77-.81c-.27.24-.54.51-.67.78.22.26.45.48.69.65.15.09.31.17.47.24.25-.04.49-.1.72-.2.09-.04.18-.08.25-.12-.29-.14-.51-.36-.68-.55Z"/>
          </g>
          <path d="m13.48,5.73c-1.47,1.09-3.02,2.34-4.61,3.79-2.22,2.02-4.08,4.03-5.61,5.89.22.15.44.3.67.46,1.46-1.74,3.19-3.62,5.22-5.52,1.78-1.67,3.53-3.11,5.16-4.34l-.82-.27Z"/>
        </g>
        <path d="m1.33,13.24c-.18-.18-.36-.36-.54-.54.76-1.75,1.97-4.05,3.89-6.41,1.59-1.95,3.21-3.39,4.56-4.42.03.27.07.54.1.81-1.24.85-2.83,2.13-4.34,3.97-2.04,2.47-3.1,4.93-3.67,6.59Z"/>
      </g>
    </pattern>
  </defs>
  <g id="BLACK_PATTERN_x16_TRANSPARENT" data-name="BLACK PATTERN x16 TRANSPARENT">
    <rect class="cls-2" width="512" height="512"/>
  </g>
</svg>