<?xml version="1.0" encoding="UTF-8"?>
<svg id="Layer_2" data-name="Layer 2" xmlns="http://www.w3.org/2000/svg" xmlns:xlink="http://www.w3.org/1999/xlink" viewBox="0 0 512 512">
  <defs>
    <style>
      .cls-1 {
        fill: url(#EL_ECO_PATTERN_32px_75_);
      }

      .cls-2 {
        opacity: .75;
      }

      .cls-3 {
        fill: none;
      }
    </style>
    <pattern id="EL_ECO_PATTERN_32px_75_" data-name="EL ECO PATTERN 32px 75%" x="0" y="0" width="32" height="32" patternUnits="userSpaceOnUse" viewBox="0 0 32 32">
      <g>
        <rect class="cls-3" width="32" height="32"/>
        <g class="cls-2">
          <g>
            <path d="m23.76,9.71c-.88-.56-1.65-1.27-2.27-2.13-.65-.91-1.09-1.84-1.38-2.7-.34-.8-.53-1.55-.58-2.26-.91.75-1.77,1.49-2.59,2.22.36,1.17.89,2.27,1.58,3.27.88,1.26,1.98,2.34,3.27,3.19.4.26.5.79.24,1.18-.26.4-.79.5-1.18.24-.79-.52-1.51-1.11-2.17-1.76-.58-.58-1.1-1.2-1.57-1.88-.64-.93-1.16-1.93-1.55-2.98-.41.39-.8.77-1.19,1.16.43,1,.97,1.94,1.62,2.8.82,1.09,1.81,2.05,2.93,2.84.39.27.47.81.2,1.19-.27.38-.81.47-1.19.2-.69-.49-1.33-1.04-1.92-1.63-.49-.49-.95-1.02-1.37-1.58-.6-.79-1.1-1.66-1.53-2.55-.35.37-.68.75-1.02,1.13.36.69.86,1.52,1.58,2.37.91,1.08,1.85,1.84,2.59,2.34-.62.48-1.33,1.1-2.04,1.88-.77.85-1.36,1.67-1.79,2.38-.36-.69-.96-1.64-1.92-2.59-.79-.78-1.58-1.3-2.21-1.65-.4.55-.78,1.09-1.13,1.61.43.61.91,1.18,1.45,1.69.58.54,1.23,1.02,1.91,1.42.32.19.43.6.24.92-.19.32-.6.43-.92.24-.77-.45-1.5-.99-2.15-1.6-.11-.1-.21-.2-.31-.3-.37-.37-.7-.77-1.02-1.18-1.05,1.63-1.84,3-2.32,3.84l-.25.43c-.78,1.35-1.53,2.74-2.21,4.15l4.26,4.26c3.46-4.2,7.29-8.13,11.39-11.69,3.44-2.99,6.42-5.38,9.05-7.24-.83-.23-1.65-.61-2.39-1.15-.04-.03-.07-.07-.11-.1Z"/>
            <path d="m30.41,7.9c-.28.48-.63.75-1.07,1.08-.15.11-.4.29-.73.47.05,0,.1,0,.15,0,.47-.07.9.26.97.72.03.19-.02.36-.1.51,0,0,0,0,.01,0,1.15-1.04.88-2.58.86-2.65.04-.17.05-.34.08-.51-.05.13-.1.26-.17.38Z"/>
            <path d="m28.84,4.19c-.27-.65-.71-1.29-1.32-1.96-.09-.1-.19-.2-.28-.3-.65-.65-1.31-1.13-1.99-1.43C24.38.11,23.46,0,22.67.19c-.4.1-.72.26-.93.48-.28.28-.4.66-.46.95,0,.63.09,1.61.47,2.73.11.26.23.51.38.79.07.14.15.27.23.4.45-.6,1.03-1.14,1.57-1.6.54-.47,1.34-.39,1.84.09l1.81,1.9c.29.3.59.62.91.76.21.09.43.07.49.01.02-.02.09-.11.14-.38.16-.83-.06-1.61-.28-2.11Z"/>
            <path d="m26.34,7.1l-1.56-1.64c-.54.49-1.08,1.03-1.36,1.58.44.52.9.96,1.39,1.32.3.18.62.34.95.48.5-.08.99-.2,1.45-.4.19-.08.36-.16.51-.24-.59-.28-1.02-.73-1.38-1.1Z"/>
          </g>
          <path d="m27.08,11.42c-2.97,2.19-6.11,4.73-9.32,7.66-4.49,4.09-8.24,8.15-11.35,11.9.45.31.9.62,1.35.92,2.95-3.52,6.44-7.31,10.55-11.16,3.61-3.38,7.13-6.28,10.43-8.77l-1.66-.55Z"/>
        </g>
        <path class="cls-2" d="m2.52,26.59c-.37-.37-.73-.73-1.1-1.1,1.53-3.55,3.98-8.19,7.87-12.96,3.21-3.93,6.49-6.85,9.22-8.93.07.55.14,1.1.21,1.64-2.51,1.72-5.71,4.3-8.78,8.02-4.12,5-6.28,9.97-7.42,13.32Z"/>
      </g>
    </pattern>
  </defs>
  <g id="PATTERN_x32_75_" data-name="PATTERN x32 75%">
    <rect class="cls-1" width="512" height="512"/>
  </g>
</svg>