<?xml version="1.0" encoding="UTF-8"?>
<svg id="Layer_2" data-name="Layer 2" xmlns="http://www.w3.org/2000/svg" xmlns:xlink="http://www.w3.org/1999/xlink" viewBox="0 0 512 512">
  <defs>
    <style>
      .cls-1 {
        fill: #fff;
      }

      .cls-2 {
        fill: url(#EL_ECO_PATTERN_1);
        opacity: .3;
      }

      .cls-3 {
        fill: none;
      }
    </style>
    <pattern id="EL_ECO_PATTERN_1" data-name="EL ECO PATTERN 1" x="0" y="0" width="32" height="32" patternUnits="userSpaceOnUse" viewBox="0 0 32 32">
      <g>
        <rect class="cls-3" width="32" height="32"/>
        <path d="m58.19,40.08c-1.06-.67-1.97-1.52-2.71-2.54-.78-1.09-1.3-2.19-1.65-3.22-.4-.96-.63-1.85-.69-2.7-1.09.9-2.11,1.78-3.09,2.65.43,1.39,1.06,2.7,1.89,3.9,1.05,1.51,2.36,2.79,3.9,3.81.47.31.6.94.29,1.41-.31.47-.94.6-1.41.29-.94-.62-1.8-1.32-2.59-2.1-.69-.69-1.31-1.44-1.87-2.24-.77-1.11-1.38-2.3-1.86-3.55-.49.46-.96.92-1.42,1.38.51,1.19,1.16,2.32,1.94,3.35.98,1.3,2.16,2.44,3.49,3.4.46.32.57.97.24,1.42-.33.46-.97.57-1.42.24-.82-.59-1.59-1.24-2.3-1.95-.59-.59-1.14-1.22-1.64-1.88-.72-.95-1.31-1.98-1.83-3.05-.42.45-.82.9-1.22,1.35.43.83,1.02,1.81,1.88,2.83,1.09,1.29,2.21,2.19,3.09,2.79-.74.57-1.59,1.31-2.44,2.24-.92,1.01-1.62,1.99-2.14,2.84-.43-.82-1.15-1.96-2.29-3.09-.95-.93-1.89-1.55-2.64-1.97-.48.66-.93,1.3-1.35,1.92.51.73,1.08,1.41,1.74,2.02.69.65,1.46,1.22,2.28,1.7.38.22.51.72.29,1.1-.22.38-.72.51-1.1.29-.92-.54-1.79-1.18-2.57-1.91-.13-.12-.25-.24-.37-.36-.44-.44-.84-.91-1.22-1.4-1.26,1.95-2.2,3.58-2.77,4.58l-.29.51c-.93,1.61-1.82,3.28-2.64,4.95l5.09,5.09c4.14-5.01,8.7-9.71,13.59-13.96,4.11-3.58,7.67-6.42,10.8-8.64-1-.27-1.96-.73-2.86-1.37-.05-.03-.09-.08-.14-.12Z"/>
        <g>
          <path d="m26.19,40.08c-1.06-.67-1.97-1.52-2.71-2.54-.78-1.09-1.3-2.19-1.65-3.22-.4-.96-.63-1.85-.69-2.7-1.09.9-2.11,1.78-3.09,2.65.43,1.39,1.06,2.7,1.89,3.9,1.05,1.51,2.36,2.79,3.9,3.81.47.31.6.94.29,1.41-.31.47-.94.6-1.41.29-.94-.62-1.8-1.32-2.59-2.1-.69-.69-1.31-1.44-1.87-2.24-.77-1.11-1.38-2.3-1.86-3.55-.49.46-.96.92-1.42,1.38.51,1.19,1.16,2.32,1.94,3.35.98,1.3,2.16,2.44,3.49,3.4.46.32.57.97.24,1.42-.33.46-.97.57-1.42.24-.82-.59-1.59-1.24-2.3-1.95-.59-.59-1.14-1.22-1.64-1.88-.72-.95-1.31-1.98-1.83-3.05-.42.45-.82.9-1.22,1.35.43.83,1.02,1.81,1.88,2.83,1.09,1.29,2.21,2.19,3.09,2.79-.74.57-1.59,1.31-2.44,2.24-.92,1.01-1.62,1.99-2.14,2.84-.43-.82-1.15-1.96-2.29-3.09-.95-.93-1.89-1.55-2.64-1.97-.48.66-.93,1.3-1.35,1.92.51.73,1.08,1.41,1.74,2.02.69.65,1.46,1.22,2.28,1.7.38.22.51.72.29,1.1-.22.38-.72.51-1.1.29-.92-.54-1.79-1.18-2.57-1.91-.13-.12-.25-.24-.37-.36-.44-.44-.84-.91-1.22-1.4-1.26,1.95-2.2,3.58-2.77,4.58l-.29.51c-.93,1.61-1.82,3.28-2.64,4.95l5.09,5.09c4.14-5.01,8.7-9.71,13.59-13.96,4.11-3.58,7.67-6.42,10.8-8.64-1-.27-1.96-.73-2.86-1.37-.05-.03-.09-.08-.14-.12Z"/>
          <path d="m32.26,33.49c-.33-.77-.84-1.54-1.58-2.34-.11-.12-.23-.24-.34-.35-.77-.77-1.57-1.35-2.37-1.71-1.04-.47-2.13-.6-3.08-.37-.47.12-.86.31-1.11.57-.33.33-.48.79-.55,1.13,0,.75.11,1.92.57,3.26.14.3.28.61.46.94.09.16.18.32.27.47.54-.72,1.23-1.36,1.87-1.91.65-.56,1.6-.46,2.2.11l2.16,2.27c.35.36.71.74,1.08.91.25.11.51.08.58.01.03-.03.11-.13.17-.46.19-.99-.07-1.92-.33-2.52Z"/>
        </g>
        <path d="m.26,33.49c-.33-.77-.84-1.54-1.58-2.34-.11-.12-.23-.24-.34-.35-.77-.77-1.57-1.35-2.37-1.71-1.04-.47-2.13-.6-3.08-.37-.47.12-.86.31-1.11.57-.33.33-.48.79-.55,1.13,0,.75.11,1.92.57,3.26.14.3.28.61.46.94.09.16.18.32.27.47.54-.72,1.23-1.36,1.87-1.91.65-.56,1.6-.46,2.2.11l2.16,2.27c.35.36.71.74,1.08.91.25.11.51.08.58.01.03-.03.11-.13.17-.46.19-.99-.07-1.92-.33-2.52Z"/>
        <g>
          <path d="m58.19,8.08c-1.06-.67-1.97-1.52-2.71-2.54-.78-1.09-1.3-2.19-1.65-3.22-.4-.96-.63-1.85-.69-2.7-1.09.9-2.11,1.78-3.09,2.65.43,1.39,1.06,2.7,1.89,3.9,1.05,1.51,2.36,2.79,3.9,3.81.47.31.6.94.29,1.41-.31.47-.94.6-1.41.29-.94-.62-1.8-1.32-2.59-2.1-.69-.69-1.31-1.44-1.87-2.24-.77-1.11-1.38-2.3-1.86-3.55-.49.46-.96.92-1.42,1.38.51,1.19,1.16,2.32,1.94,3.35.98,1.3,2.16,2.44,3.49,3.4.46.32.57.97.24,1.42-.33.46-.97.57-1.42.24-.82-.59-1.59-1.24-2.3-1.95-.59-.59-1.14-1.22-1.64-1.88-.72-.95-1.31-1.98-1.83-3.05-.42.45-.82.9-1.22,1.35.43.83,1.02,1.81,1.88,2.83,1.09,1.29,2.21,2.19,3.09,2.79-.74.57-1.59,1.31-2.44,2.24-.92,1.01-1.62,1.99-2.14,2.84-.43-.82-1.15-1.96-2.29-3.09-.95-.93-1.89-1.55-2.64-1.97-.48.66-.93,1.3-1.35,1.92.51.73,1.08,1.41,1.74,2.02.69.65,1.46,1.22,2.28,1.7.38.22.51.72.29,1.1-.22.38-.72.51-1.1.29-.92-.54-1.79-1.18-2.57-1.91-.13-.12-.25-.24-.37-.36-.44-.44-.84-.91-1.22-1.4-1.26,1.95-2.2,3.58-2.77,4.58l-.29.51c-.93,1.61-1.82,3.28-2.64,4.95l5.09,5.09c4.14-5.01,8.7-9.71,13.59-13.96,4.11-3.58,7.67-6.42,10.8-8.64-1-.27-1.96-.73-2.86-1.37-.05-.03-.09-.08-.14-.12Z"/>
          <path d="m32.83,28.24c-.44-.44-.87-.87-1.31-1.31,1.83-4.23,4.75-9.77,9.4-15.47,3.83-4.69,7.75-8.17,11.01-10.66.08.65.16,1.31.25,1.96-3,2.05-6.82,5.13-10.48,9.58-4.92,5.97-7.49,11.9-8.86,15.9Z"/>
        </g>
        <g>
          <g>
            <g>
              <path d="m26.19,8.08c-1.06-.67-1.97-1.52-2.71-2.54-.78-1.09-1.3-2.19-1.65-3.22-.4-.96-.63-1.85-.69-2.7-1.09.9-2.11,1.78-3.09,2.65.43,1.39,1.06,2.7,1.89,3.9,1.05,1.51,2.36,2.79,3.9,3.81.47.31.6.94.29,1.41-.31.47-.94.6-1.41.29-.94-.62-1.8-1.32-2.59-2.1-.69-.69-1.31-1.44-1.87-2.24-.77-1.11-1.38-2.3-1.86-3.55-.49.46-.96.92-1.42,1.38.51,1.19,1.16,2.32,1.94,3.35.98,1.3,2.16,2.44,3.49,3.4.46.32.57.97.24,1.42-.33.46-.97.57-1.42.24-.82-.59-1.59-1.24-2.3-1.95-.59-.59-1.14-1.22-1.64-1.88-.72-.95-1.31-1.98-1.83-3.05-.42.45-.82.9-1.22,1.35.43.83,1.02,1.81,1.88,2.83,1.09,1.29,2.21,2.19,3.09,2.79-.74.57-1.59,1.31-2.44,2.24-.92,1.01-1.62,1.99-2.14,2.84-.43-.82-1.15-1.96-2.29-3.09-.95-.93-1.89-1.55-2.64-1.97-.48.66-.93,1.3-1.35,1.92.51.73,1.08,1.41,1.74,2.02.69.65,1.46,1.22,2.28,1.7.38.22.51.72.29,1.1-.22.38-.72.51-1.1.29-.92-.54-1.79-1.18-2.57-1.91-.13-.12-.25-.24-.37-.36-.44-.44-.84-.91-1.22-1.4-1.26,1.95-2.2,3.58-2.77,4.58l-.29.51c-.93,1.61-1.82,3.28-2.64,4.95l5.09,5.09c4.14-5.01,8.7-9.71,13.59-13.96,4.11-3.58,7.67-6.42,10.8-8.64-1-.27-1.96-.73-2.86-1.37-.05-.03-.09-.08-.14-.12Z"/>
              <path d="m34.13,5.92c-.34.58-.75.89-1.27,1.29-.18.13-.48.34-.87.56.06,0,.12,0,.18,0,.56-.08,1.08.31,1.16.87.03.22-.02.43-.12.61,0,0,0,0,.01-.01,1.38-1.25,1.05-3.07,1.03-3.16.04-.2.06-.4.09-.6-.06.16-.11.31-.2.46Z"/>
              <path d="m32.26,1.49c-.33-.77-.84-1.54-1.58-2.34-.11-.12-.23-.24-.34-.35-.77-.77-1.57-1.35-2.37-1.71-1.04-.47-2.13-.6-3.08-.37-.47.12-.86.31-1.11.57-.33.33-.48.79-.55,1.13,0,.75.11,1.92.57,3.26.14.3.28.61.46.94.09.16.18.32.27.47.54-.72,1.23-1.36,1.87-1.91.65-.56,1.6-.46,2.2.11l2.16,2.27c.35.36.71.74,1.08.91.25.11.51.08.58.01.03-.03.11-.13.17-.46.19-.99-.07-1.92-.33-2.52Z"/>
              <path d="m29.27,4.97l-1.86-1.96c-.65.58-1.29,1.23-1.62,1.89.52.63,1.08,1.15,1.66,1.58.36.22.74.41,1.13.57.6-.09,1.18-.24,1.73-.47.23-.1.42-.19.61-.29-.7-.33-1.22-.87-1.64-1.32Z"/>
            </g>
            <path d="m30.15,10.12c-3.54,2.62-7.29,5.65-11.13,9.14-5.36,4.89-9.84,9.73-13.55,14.21.54.37,1.07.73,1.61,1.1,3.52-4.21,7.69-8.73,12.6-13.33,4.31-4.04,8.51-7.5,12.45-10.46l-1.98-.66Z"/>
          </g>
          <path d="m.83,28.24c-.44-.44-.87-.87-1.31-1.31,1.83-4.23,4.75-9.77,9.4-15.47C12.75,6.76,16.67,3.28,19.93.79c.08.65.16,1.31.25,1.96-3,2.05-6.82,5.13-10.48,9.58C4.77,18.31,2.2,24.23.83,28.24Z"/>
        </g>
        <g>
          <g>
            <path d="m2.13,5.92c-.34.58-.75.89-1.27,1.29-.18.13-.48.34-.87.56.06,0,.12,0,.18,0,.56-.08,1.08.31,1.16.87.03.22-.02.43-.12.61,0,0,0,0,.01-.01,1.38-1.25,1.05-3.07,1.03-3.16.04-.2.06-.4.09-.6-.06.16-.11.31-.2.46Z"/>
            <path d="m.26,1.49C-.07.72-.58-.04-1.32-.84c-.11-.12-.23-.24-.34-.35-.77-.77-1.57-1.35-2.37-1.71-1.04-.47-2.13-.6-3.08-.37-.47.12-.86.31-1.11.57-.33.33-.48.79-.55,1.13,0,.75.11,1.92.57,3.26.14.3.28.61.46.94.09.16.18.32.27.47.54-.72,1.23-1.36,1.87-1.91.65-.56,1.6-.46,2.2.11L-1.25,3.56c.35.36.71.74,1.08.91.25.11.51.08.58.01.03-.03.11-.13.17-.46.19-.99-.07-1.92-.33-2.52Z"/>
          </g>
          <path d="m-1.85,10.12c-3.54,2.62-7.29,5.65-11.13,9.14-5.36,4.89-9.84,9.73-13.55,14.21.54.37,1.07.73,1.61,1.1,3.52-4.21,7.69-8.73,12.6-13.33C-8.01,17.21-3.81,13.74.13,10.78l-1.98-.66Z"/>
        </g>
        <path d="m58.19-23.92c-1.06-.67-1.97-1.52-2.71-2.54-.78-1.09-1.3-2.19-1.65-3.22-.4-.96-.63-1.85-.69-2.7-1.09.9-2.11,1.78-3.09,2.65.43,1.39,1.06,2.7,1.89,3.9,1.05,1.51,2.36,2.79,3.9,3.81.47.31.6.94.29,1.41-.31.47-.94.6-1.41.29-.94-.62-1.8-1.32-2.59-2.1-.69-.69-1.31-1.44-1.87-2.24-.77-1.11-1.38-2.3-1.86-3.55-.49.46-.96.92-1.42,1.38.51,1.19,1.16,2.32,1.94,3.35.98,1.3,2.16,2.44,3.49,3.4.46.32.57.97.24,1.42-.33.46-.97.57-1.42.24-.82-.59-1.59-1.24-2.3-1.95-.59-.59-1.14-1.22-1.64-1.88-.72-.95-1.31-1.98-1.83-3.05-.42.45-.82.9-1.22,1.35.43.83,1.02,1.81,1.88,2.83,1.09,1.29,2.21,2.19,3.09,2.79-.74.57-1.59,1.31-2.44,2.24-.92,1.01-1.62,1.99-2.14,2.84-.43-.82-1.15-1.96-2.29-3.09-.95-.93-1.89-1.55-2.64-1.97-.48.66-.93,1.3-1.35,1.92.51.73,1.08,1.41,1.74,2.02.69.65,1.46,1.22,2.28,1.7.38.22.51.72.29,1.1-.22.38-.72.51-1.1.29-.92-.54-1.79-1.18-2.57-1.91-.13-.12-.25-.24-.37-.36-.44-.44-.84-.91-1.22-1.4-1.26,1.95-2.2,3.58-2.77,4.58l-.29.51c-.93,1.61-1.82,3.28-2.64,4.95L36.78.16c4.14-5.01,8.7-9.71,13.59-13.96,4.11-3.58,7.67-6.42,10.8-8.64-1-.27-1.96-.73-2.86-1.37-.05-.03-.09-.08-.14-.12Z"/>
        <g>
          <path d="m26.19-23.92c-1.06-.67-1.97-1.52-2.71-2.54-.78-1.09-1.3-2.19-1.65-3.22-.4-.96-.63-1.85-.69-2.7-1.09.9-2.11,1.78-3.09,2.65.43,1.39,1.06,2.7,1.89,3.9,1.05,1.51,2.36,2.79,3.9,3.81.47.31.6.94.29,1.41-.31.47-.94.6-1.41.29-.94-.62-1.8-1.32-2.59-2.1-.69-.69-1.31-1.44-1.87-2.24-.77-1.11-1.38-2.3-1.86-3.55-.49.46-.96.92-1.42,1.38.51,1.19,1.16,2.32,1.94,3.35.98,1.3,2.16,2.44,3.49,3.4.46.32.57.97.24,1.42-.33.46-.97.57-1.42.24-.82-.59-1.59-1.24-2.3-1.95-.59-.59-1.14-1.22-1.64-1.88-.72-.95-1.31-1.98-1.83-3.05-.42.45-.82.9-1.22,1.35.43.83,1.02,1.81,1.88,2.83,1.09,1.29,2.21,2.19,3.09,2.79-.74.57-1.59,1.31-2.44,2.24-.92,1.01-1.62,1.99-2.14,2.84-.43-.82-1.15-1.96-2.29-3.09-.95-.93-1.89-1.55-2.64-1.97-.48.66-.93,1.3-1.35,1.92.51.73,1.08,1.41,1.74,2.02.69.65,1.46,1.22,2.28,1.7.38.22.51.72.29,1.1-.22.38-.72.51-1.1.29-.92-.54-1.79-1.18-2.57-1.91-.13-.12-.25-.24-.37-.36-.44-.44-.84-.91-1.22-1.4-1.26,1.95-2.2,3.58-2.77,4.58l-.29.51c-.93,1.61-1.82,3.28-2.64,4.95L4.78.16c4.14-5.01,8.7-9.71,13.59-13.96,4.11-3.58,7.67-6.42,10.8-8.64-1-.27-1.96-.73-2.86-1.37-.05-.03-.09-.08-.14-.12Z"/>
          <path d="m30.15-21.88c-3.54,2.62-7.29,5.65-11.13,9.14C13.66-7.85,9.18-3.01,5.47,1.47c.54.37,1.07.73,1.61,1.1,3.52-4.21,7.69-8.73,12.6-13.33,4.31-4.04,8.51-7.5,12.45-10.46l-1.98-.66Z"/>
        </g>
        <path d="m-1.85-21.88c-3.54,2.62-7.29,5.65-11.13,9.14C-18.34-7.85-22.82-3.01-26.53,1.47c.54.37,1.07.73,1.61,1.1,3.52-4.21,7.69-8.73,12.6-13.33C-8.01-14.79-3.81-18.26.13-21.22l-1.98-.66Z"/>
      </g>
    </pattern>
  </defs>
  <g id="PATTERN_ARTBOARD" data-name="PATTERN ARTBOARD">
    <g id="PATTERN_BACKGROUND" data-name="PATTERN BACKGROUND">
      <rect class="cls-1" width="512" height="512"/>
    </g>
    <rect id="BACKGROUND" class="cls-2" width="512" height="512"/>
    <g id="PATTERN_SHAPE" data-name="PATTERN SHAPE">
      <g>
        <g>
          <g>
            <path d="m378.96,160.07c-13.49-8.61-25.21-19.41-34.59-32.5-9.94-13.9-16.6-27.99-21.03-41.18-5.17-12.23-8.07-23.68-8.83-34.5-13.93,11.43-26.97,22.69-39.5,33.87,5.54,17.77,13.53,34.54,24.13,49.82,13.4,19.28,30.15,35.63,49.82,48.59,6.04,3.93,7.69,12.05,3.73,18.06-3.96,6.03-12.05,7.69-18.06,3.73-11.97-7.87-23-16.85-33.01-26.86-8.78-8.78-16.76-18.35-23.91-28.66-9.8-14.13-17.67-29.36-23.7-45.38-6.23,5.88-12.24,11.78-18.16,17.66,6.54,15.19,14.82,29.58,24.77,42.73,12.56,16.6,27.57,31.18,44.61,43.37,5.87,4.06,7.24,12.33,3.04,18.19-4.19,5.86-12.33,7.23-18.19,3.04-10.49-7.49-20.29-15.79-29.34-24.84-7.51-7.51-14.51-15.53-20.93-24.03-9.14-12.08-16.71-25.26-23.33-38.93-5.39,5.69-10.44,11.48-15.6,17.23,5.44,10.55,13.07,23.12,24.03,36.14,13.89,16.5,28.23,27.97,39.42,35.61-9.48,7.29-20.27,16.7-31.16,28.61-11.79,12.91-20.7,25.47-27.34,36.24-5.5-10.5-14.64-25.06-29.25-39.42-12.1-11.9-24.08-19.82-33.73-25.21-6.1,8.45-11.83,16.63-17.19,24.56,6.57,9.27,13.85,18.01,22.16,25.76,8.87,8.26,18.69,15.56,29.16,21.72,4.91,2.87,6.53,9.14,3.65,14.02-2.86,4.88-9.15,6.52-14.02,3.65-11.77-6.91-22.79-15.11-32.76-24.39-1.61-1.49-3.19-3.02-4.74-4.57-5.6-5.6-10.71-11.66-15.56-17.94-16.08,24.9-28.1,45.71-35.43,58.49l-3.75,6.53c-11.93,20.6-23.25,41.84-33.73,63.26l64.97,64.97c52.81-64.03,111.15-123.93,173.58-178.22,52.49-45.65,97.93-81.99,137.96-110.33-12.72-3.51-25.09-9.29-36.48-17.47-.6-.43-1.14-1.03-1.73-1.48Z"/>
            <path d="m480.31,132.48c-4.34,7.35-9.61,11.38-16.27,16.48-2.25,1.71-6.11,4.36-11.1,7.21.75-.08,1.51.02,2.25-.09,7.12-1.04,13.74,3.9,14.77,11.05.41,2.82-.32,5.45-1.56,7.77.06-.05.12-.08.19-.14,17.61-15.91,13.34-39.25,13.12-40.39.57-2.57.77-5.15,1.15-7.72-.77,1.98-1.46,4.01-2.54,5.84Z"/>
            <path d="m456.44,76c-4.15-9.85-10.75-19.61-20.18-29.83-1.44-1.56-2.88-3.08-4.33-4.53-9.86-9.86-20.03-17.2-30.29-21.84-13.27-6.02-27.24-7.7-39.36-4.74-6.04,1.49-10.96,4.01-14.22,7.31-4.21,4.25-6.1,10.07-6.99,14.46.06,9.59,1.42,24.49,7.22,41.57,1.73,3.89,3.52,7.81,5.82,11.98,1.14,2.06,2.29,4.09,3.47,6.06,6.9-9.15,15.7-17.32,23.93-24.45,8.25-7.13,20.42-5.9,28.1,1.37l27.56,28.99c4.42,4.62,9.01,9.45,13.81,11.58,3.24,1.44,6.54,1.06,7.47.16.38-.37,1.39-1.71,2.19-5.86,2.44-12.62-.94-24.49-4.2-32.22Z"/>
            <path d="m418.26,120.33l-23.77-25.02c-8.28,7.42-16.5,15.77-20.74,24.16,6.68,7.98,13.79,14.66,21.22,20.12,4.57,2.79,9.41,5.22,14.48,7.32,7.62-1.16,15.05-3.12,22.07-6.06,2.9-1.22,5.41-2.47,7.73-3.71-8.93-4.27-15.6-11.12-20.99-16.81Z"/>
          </g>
          <path d="m429.47,186.13c-45.24,33.45-93.13,72.14-142.05,116.74-68.45,62.41-125.67,124.29-173,181.43,6.86,4.69,13.71,9.38,20.57,14.08,44.92-53.7,98.21-111.49,160.86-170.19,54.99-51.52,108.68-95.79,158.93-133.61-8.44-2.81-16.88-5.63-25.32-8.44Z"/>
        </g>
        <path d="m58.27,420.2c-5.87-5.87-11.74-11.74-17.61-17.61,24.57-56.84,63.76-131.15,126.14-207.62,51.4-63,104.03-109.68,147.7-143.07,1.11,8.77,2.21,17.55,3.32,26.32-40.22,27.52-91.52,68.91-140.68,128.56-66.04,80.14-100.55,159.66-118.87,213.42Z"/>
      </g>
    </g>
  </g>
</svg>